<svg width="97" height="56" viewBox="0 0 97 56" fill="none" xmlns="http://www.w3.org/2000/svg">
<g clip-path="url(#clip0_19_215)">
<path d="M24.9931 14.503C25.1213 13.7941 25.3612 13.1918 25.7129 12.6853C26.0648 12.179 26.5078 11.7951 27.0464 11.5236C27.585 11.2515 28.2035 11.1129 28.8966 11.1129C29.4995 11.1129 30.038 11.2409 30.5182 11.5019C30.9928 11.7581 31.3766 12.1417 31.6594 12.6427C31.9473 13.1439 32.1019 13.7676 32.1289 14.503H24.9931ZM20.7054 16.5177C20.7109 17.685 20.9132 18.7831 21.3131 19.8065C21.7188 20.8351 22.2999 21.7414 23.0625 22.5249C23.8253 23.3137 24.7425 23.9265 25.8197 24.3745C26.9025 24.8221 28.1182 25.046 29.4728 25.0566C30.2886 25.0514 31.0353 24.9714 31.7178 24.8117C32.3951 24.6572 33.0032 24.4652 33.5365 24.2358C34.0697 24.0065 34.5234 23.772 34.8964 23.5429C35.2645 23.3137 35.5471 23.1219 35.7392 22.9671C35.9364 22.8073 36.0323 22.7273 36.0323 22.7219L34.4644 19.8121C34.4644 19.8173 34.3846 19.8811 34.2301 19.9987C34.0697 20.1157 33.8513 20.2647 33.5634 20.4409C33.2808 20.6165 32.9393 20.7978 32.5501 20.9738C32.1607 21.1499 31.7285 21.299 31.2593 21.4162C30.7848 21.5335 30.2886 21.5975 29.7606 21.6028C29.1477 21.6028 28.5664 21.5121 28.0063 21.3307C27.4463 21.1441 26.945 20.8726 26.497 20.5099C26.0489 20.1479 25.681 19.6998 25.3985 19.1615C25.1107 18.6232 24.9346 17.9946 24.865 17.2853H36.1283C36.1283 17.2799 36.1337 17.2215 36.1445 17.1092C36.1552 16.9922 36.1658 16.8536 36.1763 16.6829C36.1869 16.5125 36.1979 16.3366 36.2086 16.1662C36.219 15.9901 36.2244 15.8408 36.2244 15.7182C36.2244 14.631 36.0699 13.6238 35.7549 12.6853C35.4458 11.7527 34.9819 10.9315 34.374 10.2281C33.7607 9.52468 33.0086 8.97574 32.1071 8.58093C31.2061 8.18667 30.1713 7.98423 28.9928 7.979C27.7717 7.98423 26.6572 8.1919 25.6438 8.6078C24.6359 9.01847 23.7609 9.60472 23.0252 10.3667C22.2895 11.1235 21.7188 12.0244 21.3185 13.0638C20.9132 14.1085 20.7109 15.2547 20.7054 16.5177Z" fill="white"/>
<path d="M37.2819 22.6583C37.2819 22.6635 37.3728 22.7488 37.5486 22.9085C37.7299 23.0688 37.9913 23.2658 38.3432 23.5003C38.6897 23.7403 39.1216 23.9744 39.6337 24.2142C40.1458 24.4489 40.7326 24.6462 41.399 24.8062C42.0657 24.966 42.8068 25.0514 43.6176 25.0566C44.588 25.0514 45.4572 24.9232 46.225 24.6728C46.9932 24.4224 47.6491 24.0759 48.1878 23.6281C48.732 23.1859 49.1424 22.6635 49.425 22.0771C49.7131 21.4856 49.8572 20.846 49.8572 20.1636C49.8518 19.4171 49.7024 18.7724 49.4198 18.2289C49.1319 17.685 48.7529 17.2215 48.2838 16.8321C47.8147 16.4429 47.2975 16.1127 46.7319 15.8303C46.1718 15.5479 45.6069 15.2971 45.0469 15.0788C44.4814 14.8545 43.9641 14.6418 43.4949 14.4334C43.0258 14.2257 42.6468 13.9966 42.359 13.7566C42.0763 13.5115 41.927 13.229 41.9217 12.9041C41.927 12.5627 42.0283 12.2858 42.2257 12.0671C42.4228 11.8488 42.6789 11.6885 42.9935 11.5872C43.3083 11.4808 43.6443 11.4331 44.0014 11.4331C44.6253 11.4381 45.1854 11.5129 45.6812 11.6512C46.1718 11.7898 46.5932 11.9499 46.94 12.1365C47.2811 12.3175 47.5479 12.4828 47.7293 12.6214C47.9108 12.7603 48.001 12.8345 48.001 12.8397L49.5053 9.83385C49.5053 9.82825 49.4358 9.76444 49.2917 9.64223C49.1478 9.51945 48.9294 9.36496 48.6413 9.17838C48.348 8.99683 47.9851 8.81565 47.5479 8.62906C47.1109 8.44789 46.6038 8.29321 46.0173 8.17081C45.4309 8.04804 44.7694 7.98423 44.0335 7.979C43.1481 7.979 42.327 8.08554 41.5747 8.29862C40.8179 8.51189 40.1564 8.82666 39.5964 9.23678C39.0309 9.64726 38.5883 10.1535 38.2741 10.7455C37.9592 11.337 37.7994 12.0139 37.7939 12.7761C37.8046 13.5221 37.9485 14.1673 38.2312 14.7056C38.5192 15.2489 38.8978 15.7128 39.367 16.1018C39.8363 16.491 40.3536 16.8269 40.9192 17.1092C41.4789 17.3919 42.0442 17.6423 42.6043 17.8664C43.1695 18.0903 43.687 18.3138 44.156 18.5273C44.6253 18.7457 45.0041 18.9803 45.292 19.2363C45.5748 19.4869 45.7242 19.7903 45.7292 20.1315C45.7242 20.4513 45.6228 20.7234 45.4309 20.9417C45.2335 21.1604 44.9772 21.3255 44.6522 21.432C44.3322 21.5443 43.9751 21.6028 43.5855 21.6028C43.0519 21.5975 42.5615 21.5335 42.103 21.4162C41.6497 21.299 41.2387 21.1499 40.8711 20.9738C40.5082 20.7978 40.199 20.6165 39.9377 20.4409C39.6817 20.2647 39.4844 20.1157 39.3459 19.9987C39.2072 19.8811 39.1379 19.8173 39.1379 19.8121L37.2819 22.6583Z" fill="white"/>
<path d="M53.1627 18.6927C53.1679 19.5986 53.2853 20.3878 53.5095 21.0485C53.7334 21.704 54.0375 22.2639 54.4159 22.7168C54.7997 23.1648 55.2265 23.5322 55.7012 23.8148C56.1758 24.0919 56.6718 24.3104 57.1785 24.4545C57.6853 24.6039 58.1758 24.705 58.6557 24.7584C59.1305 24.8116 59.5625 24.8381 59.9463 24.8328C60.3355 24.8274 60.6394 24.8116 60.8582 24.7849C61.0767 24.7584 61.1892 24.7424 61.1945 24.7369V21.187C61.1892 21.1924 61.1248 21.2034 60.9917 21.2192C60.8637 21.2401 60.6822 21.2511 60.4582 21.2511C60.1703 21.2566 59.8451 21.2243 59.4824 21.15C59.1198 21.0752 58.7625 20.9366 58.4212 20.7235C58.0798 20.51 57.7972 20.2012 57.5731 19.796C57.3493 19.3857 57.2317 18.847 57.2266 18.1809V11.8489C57.9887 11.8489 58.4524 11.8489 59.2148 11.8489C60.3256 11.8489 60.938 11.2877 60.938 10.2293V8.61873H57.2266V5.62962C57.2266 4.26251 56.2501 3.64883 55.2915 3.64883H53.2585V8.61873H52.1256L50.5134 11.8489H53.1627V18.6927Z" fill="white"/>
<path d="M87.6958 18.7661H96.1342L97.0004 15.5358H88.5618L87.6958 18.7661Z" fill="white"/>
<path d="M62.9092 19.5882C62.9146 20.5155 63.0156 21.2992 63.2181 21.9282C63.4158 22.5572 63.6875 23.0632 64.0343 23.4524C64.3758 23.8364 64.765 24.1297 65.197 24.332C65.629 24.529 66.0825 24.668 66.5514 24.737C67.0209 24.8064 67.4794 24.8382 67.9329 24.8329C68.1621 24.8329 68.3703 24.8223 68.5622 24.8064C68.7539 24.79 68.9139 24.7742 69.0315 24.7639C69.1488 24.748 69.2074 24.737 69.2124 24.737V21.1871C69.2074 21.1871 69.1434 21.1925 69.0263 21.2035C68.9087 21.2139 68.7698 21.2193 68.6048 21.2193C68.2527 21.2244 67.9488 21.166 67.7035 21.038C67.4583 20.91 67.2662 20.681 67.1382 20.3558C67.0045 20.0306 66.9408 19.5723 66.9408 18.9803C66.9408 14.3838 66.9408 10.2266 66.9408 5.62972C66.9408 4.2626 65.9645 3.64892 65.0057 3.64892H62.9092V19.5882Z" fill="white"/>
<path d="M73.9989 14.503C74.1269 13.7941 74.367 13.1918 74.7187 12.6853C75.0706 12.179 75.5134 11.7951 76.052 11.5236C76.5906 11.2515 77.2093 11.1129 77.9025 11.1129C78.5053 11.1129 79.0437 11.2409 79.5238 11.5019C79.9984 11.7581 80.3824 12.1417 80.665 12.6427C80.9531 13.1439 81.1077 13.7676 81.1345 14.503H73.9989ZM69.7111 16.5177C69.7165 17.685 69.919 18.7831 70.3189 19.8065C70.7244 20.8351 71.3057 21.7414 72.0683 22.5249C72.831 23.3137 73.7481 23.9265 74.8253 24.3745C75.9081 24.8221 77.1238 25.046 78.4784 25.0566C79.2944 25.0514 80.0411 24.9714 80.7236 24.8117C81.4008 24.6572 82.009 24.4652 82.5423 24.2358C83.0755 24.0065 83.5292 23.772 83.9022 23.5429C84.2699 23.3137 84.5528 23.1219 84.7447 22.9671C84.942 22.8073 85.0381 22.7273 85.0381 22.7219L83.47 19.8121C83.47 19.8173 83.3905 19.8811 83.2357 19.9987C83.0755 20.1157 82.8571 20.2647 82.569 20.4409C82.2862 20.6165 81.9449 20.7978 81.5557 20.9738C81.1661 21.1499 80.7341 21.299 80.2651 21.4162C79.7904 21.5335 79.2944 21.5975 78.7662 21.6028C78.1534 21.6028 77.5722 21.5121 77.0121 21.3307C76.4521 21.1441 75.9508 20.8726 75.5026 20.5099C75.0548 20.1479 74.6864 19.6998 74.4043 19.1615C74.1163 18.6232 73.9401 17.9946 73.8706 17.2853H85.1341C85.1341 17.2799 85.1393 17.2215 85.1503 17.1092C85.1608 16.9922 85.1716 16.8536 85.1821 16.6829C85.1927 16.5125 85.2035 16.3366 85.2142 16.1662C85.2248 15.9901 85.2301 15.8408 85.2301 15.7182C85.2301 14.631 85.0755 13.6238 84.7605 12.6853C84.4516 11.7527 83.9875 10.9315 83.3796 10.2281C82.7664 9.52468 82.0142 8.97574 81.1129 8.58093C80.2119 8.18667 79.1771 7.98423 77.9984 7.979C76.7773 7.98423 75.6628 8.1919 74.6495 8.6078C73.6417 9.01847 72.7667 9.60472 72.031 10.3667C71.2951 11.1235 70.7244 12.0244 70.3241 13.0638C69.919 14.1085 69.7165 15.2547 69.7111 16.5177Z" fill="white"/>
<path fill-rule="evenodd" clip-rule="evenodd" d="M18.8371 9.08603V24.6729C17.9842 24.6729 17.219 24.6729 16.366 24.6729C15.2319 24.6729 14.5046 24.3167 13.9857 23.5393L4.37383 9.13212V22.2937L4.40607 24.6729H4.37383H0.278198V1.9663C1.06928 1.9663 1.86029 1.9663 2.65136 1.9663C4.26167 1.9663 4.5129 2.12601 5.62666 3.79726L14.7416 17.4654C14.7416 15.8024 14.7416 12.9347 14.7416 11.2715C14.7416 9.16272 17.4945 9.08603 18.8371 9.08603Z" fill="white"/>
<path fill-rule="evenodd" clip-rule="evenodd" d="M23.1293 0.000626087C23.1293 6.35611 19.6315 5.3465 13.9222 7.08398C14.8505 5.23623 17.2074 4.07678 18.2998 3.61293C16.9008 3.63849 14.7131 4.54772 13.5574 5.65772C14.1461 0.899968 17.6856 1.76573 23.1293 0.000626087Z" fill="#B0D629"/>
<path d="M4.60807 31.3867C4.60807 31.3867 4.37567 32.4036 4.17199 32.9846L3.25606 35.7448H5.95994L5.04402 32.9846C4.85513 32.4036 4.6371 31.3867 4.6371 31.3867H4.60807ZM6.4252 37.2705H2.8056L1.93322 39.9146H0L3.63417 29.5998H5.59655L9.23037 39.9146H7.29715L6.4252 37.2705Z" fill="white"/>
<path d="M18.3386 34.7281C19.429 34.7281 20.0684 34.0306 20.0684 32.9555C20.0684 31.8951 19.429 31.2122 18.3678 31.2122H16.5797V34.7281H18.3386ZM14.7048 29.5998H18.6877C20.6208 29.5998 21.9728 30.9506 21.9728 32.9555C21.9728 34.9604 20.6208 36.3551 18.6877 36.3551H16.5797V39.9146H14.7048V29.5998Z" fill="white"/>
<path d="M30.7903 38.3745C32.6801 38.3745 34.1917 36.8055 34.1917 34.6844C34.1917 32.6503 32.6801 31.1395 30.7903 31.1395C28.9007 31.1395 27.3889 32.6503 27.3889 34.6844C27.3889 36.8055 28.9007 38.3745 30.7903 38.3745ZM30.7903 29.4251C33.8282 29.4251 36.125 31.7349 36.125 34.6844C36.125 37.7207 33.8282 40.0889 30.7903 40.0889C27.7522 40.0889 25.4556 37.7207 25.4556 34.6844C25.4556 31.7349 27.7522 29.4251 30.7903 29.4251Z" fill="white"/>
<path d="M42.7722 31.2122H39.3855V29.5998H48.0343V31.2122H44.6476V39.9146H42.7722V31.2122Z" fill="white"/>
<path d="M52.3231 29.5998H54.1982V33.9726H58.9225V29.5998H60.7975V39.9146H58.9225V35.5852H54.1982V39.9146H52.3231V29.5998Z" fill="white"/>
<path d="M66.3365 29.5998H72.5144V31.2122H68.2116V33.9144H71.6857V35.527H68.2116V38.3019H72.747V39.9146H66.3365V29.5998Z" fill="white"/>
<path d="M77.6172 29.5998H79.4923V33.7983H80.8295L83.2571 29.5998H85.2922L82.3704 34.5101V34.5392L85.4668 39.9146H83.3589L80.8295 35.4108H79.4923V39.9146H77.6172V29.5998Z" fill="white"/>
<path d="M89.74 29.5998H95.9176V31.2122H91.6151V33.9144H95.0893V35.527H91.6151V38.3019H96.1504V39.9146H89.74V29.5998Z" fill="white"/>
<path d="M42.9773 48.1065C43.9208 48.1065 44.5128 47.053 44.9009 46.8125C44.9009 46.8308 44.9194 46.8494 44.9379 46.8494C44.9935 46.8494 45.0675 46.4244 45.6038 46.2023L46.0293 45.7773L46.1032 45.7589C46.2697 45.6293 46.7876 45.1672 46.8061 44.8162C46.7691 44.8162 46.473 44.2616 46.2882 44.1506C45.1785 44.1693 44.0685 45.1672 43.5878 46.2393C43.403 46.7569 42.9219 47.3302 42.9034 47.977L42.8849 48.088L42.9773 48.1065ZM46.3067 50.3802C46.3067 50.2696 46.3067 50.177 46.3806 50.1029L46.3993 49.5855C46.3806 49.5669 46.3806 49.5299 46.3806 49.5116V49.4376C46.3806 49.4006 46.4174 49.345 46.4174 49.3081C46.4174 49.1971 46.3993 49.1601 46.3993 49.0679V48.9939C46.3993 48.9015 46.4359 48.8275 46.4359 48.7536C46.4359 48.7536 46.4359 48.6979 46.3993 48.6979L46.4174 48.1249C46.4543 48.1249 46.6395 48.1249 46.658 47.9956C46.658 47.9956 46.5283 47.8479 46.51 47.8109C46.5283 47.2563 46.695 46.6832 46.7137 46.1104C46.7137 46.0365 46.695 45.9809 46.6211 45.9809C46.5469 45.9809 46.4174 45.9994 46.3993 45.9994C46.3436 45.9994 45.6593 46.8864 45.5482 46.8864C45.4373 46.8864 45.2892 47.3118 45.0675 47.3302L44.6605 47.7001C44.6605 47.7924 44.5681 47.9585 44.5128 47.977C44.2907 47.977 44.2537 48.2914 44.1794 48.3654C43.9393 48.624 43.2736 48.9385 42.9219 48.9385C42.6631 48.9385 42.4779 48.9015 42.2009 48.7349C41.9048 48.7349 41.9233 48.3285 41.7937 48.3285L41.8122 47.977L41.7566 47.9585V47.663C41.8862 47.6445 41.8679 47.201 41.9048 47.1084C41.9418 47.0343 42.0342 47.0343 42.0712 46.9789C42.0712 46.8125 42.2748 46.5352 42.2748 46.5169C42.2748 46.4983 42.2748 46.4244 42.2563 46.369C42.2563 46.2949 42.7186 45.4263 42.9588 45.0379C43.033 44.9272 43.2549 44.7977 43.329 44.7054C43.5137 44.4648 44.2537 43.5961 44.5867 43.4666C44.6605 43.4297 45.3077 43.1894 45.3077 43.0972H45.9736L46.0662 43.0601C46.3806 43.0601 47.0833 43.3927 47.2868 43.6702C47.3424 43.7627 47.2868 43.7993 47.3794 43.8547C47.9527 43.8547 48.1379 44.4092 48.1379 44.7423C48.1379 44.8162 48.0268 44.9272 48.0268 45.0009C48.0268 45.4077 47.8046 45.6293 47.7862 46.0734C47.7862 46.1288 47.8231 46.1654 47.8231 46.258C47.8231 46.3319 47.7307 46.3503 47.7307 46.4429C47.7121 46.7384 47.6196 46.6832 47.6196 46.7938V46.9789C47.6196 47.053 47.6196 47.0899 47.6012 47.1084L47.5831 47.5335C47.6012 47.5335 47.6012 47.5888 47.6012 47.6258C47.6012 47.6814 47.5831 47.8109 47.5461 47.8663L47.4905 48.1249V50.1216C47.4905 50.2509 47.6012 50.4172 47.6012 50.6021C47.6012 50.6944 47.4905 51.0825 47.1574 51.0825C47.1018 51.0825 47.1203 51.0456 47.0463 51.0456C46.9911 51.0456 46.9541 51.0456 46.88 51.0825C46.658 50.916 46.3067 51.0456 46.3067 50.5095V50.3802Z" fill="#B0D629"/>
<path d="M55.6021 49.5858L55.5466 49.5489V49.1787C55.5651 49.1787 55.5836 49.1604 55.5836 49.1417C55.5836 49.0497 55.5466 49.0128 55.5466 48.9202C55.5466 48.8648 55.5651 48.7908 55.5651 48.7352C55.5651 48.6243 55.5097 48.5689 55.5097 48.4583C55.5097 48.2362 55.5466 47.9772 55.6392 47.7743C55.6021 47.7373 55.6021 47.6817 55.6021 47.6076C55.6021 47.4781 55.6943 47.3488 55.6943 47.1826C55.6943 47.1087 55.6943 47.0533 55.6392 46.9792C55.6392 46.6281 55.8054 46.4616 55.8054 46.1291C55.8054 45.9996 55.7313 45.8701 55.7313 45.7035H55.5651C55.3986 45.7222 55.3247 46.2767 55.1766 46.3875C54.8992 46.3875 54.8992 46.7571 54.6403 46.9792C54.5846 47.0902 54.3815 47.1456 54.3446 47.2751C54.252 47.6076 54.2148 47.4042 54.1594 47.5337C54.0483 47.7743 53.8635 48.2362 53.8635 48.2362C53.7526 48.2362 53.4565 48.6613 53.4565 48.6982C53.4565 48.8092 52.8277 49.0682 52.8091 49.1604H52.3838C52.3467 49.1604 52.0509 48.9941 52.0509 48.9572V48.6982L52.2358 47.5151V47.4042C52.2358 47.0346 52.3097 46.6465 52.3097 46.2952C52.3097 46.2952 52.2727 45.5005 52.0881 45.5005C51.5883 45.5005 50.1275 48.0698 49.7758 48.5689C49.6651 48.7352 49.4431 48.8277 49.2395 48.8277C49.184 48.8277 48.9438 48.6982 48.8883 48.6613C48.8883 48.1991 48.9994 47.7373 49.0548 47.2195C49.0548 46.0368 49.3136 44.946 49.3136 43.855C49.4431 43.855 49.5171 43.892 49.6097 43.892C49.6468 43.892 49.6097 43.7996 49.6651 43.7996C49.9978 43.7996 50.1275 44.0216 50.1275 44.3175C50.1275 44.8906 49.9795 45.2971 49.9795 45.8701L49.9425 45.9255C49.9425 46.2213 49.8684 46.4986 49.8684 46.7571H49.9978C50.0721 46.7571 50.2384 46.3875 50.4232 46.3875C50.6082 46.055 50.7934 45.7222 51.2185 45.408L51.3852 45.0751C51.4222 45.1675 51.4776 45.1675 51.5514 45.1675C51.4776 45.1491 51.4776 45.0012 51.4776 44.909C51.7366 44.909 51.8105 44.4465 52.532 44.4465C52.7536 44.4465 52.6984 44.576 52.8647 44.576L53.0682 45.1121C53.0682 45.1675 53.0682 45.408 53.1421 45.5005V46.1291C53.1052 46.1657 53.031 47.0533 52.9758 47.0902V47.7004C52.9758 47.7743 53.031 47.7743 53.0682 47.7743C53.4565 47.7743 53.6971 47.2382 53.8821 47.0163C54.0483 46.8127 54.0483 47.1087 54.1965 46.6281C54.3629 46.5911 54.5292 46.0181 54.7512 45.8332C55.0103 45.5005 55.2506 45.1675 55.4356 44.8165C55.4356 44.687 55.9904 44.1509 56.0273 43.763C56.5454 43.818 56.7859 43.7074 56.7859 44.2435C56.7859 44.8349 56.5267 45.5005 56.5267 46.1291C56.5267 46.1843 56.5637 46.2213 56.5637 46.2952C56.5637 46.3322 56.4341 46.7941 56.3972 46.8127C56.3972 47.1456 56.3972 47.4781 56.3231 47.6076C56.3231 47.9035 56.1941 48.1991 56.1941 48.4952C56.1941 48.5689 56.1941 48.6428 56.231 48.6982V49.1604C56.1941 49.1604 56.1941 49.2158 56.1941 49.2527C56.1941 49.2897 56.1941 49.3269 56.268 49.3269V49.6782C56.3048 50.0663 56.5637 49.9553 56.6378 50.2142C56.7489 50.2142 56.8043 50.1403 56.8966 50.1403C56.8966 50.2698 56.8594 50.2698 56.8594 50.3435C56.8594 50.3988 56.915 50.5098 56.952 50.5284C56.8966 50.5654 56.8966 50.6947 56.8228 50.7687C56.7489 50.8243 56.4528 50.9348 56.4341 50.9902H56.1941C55.5836 50.6947 55.7867 50.5284 55.6021 50.2142V49.5858Z" fill="#B0D629"/>
<path d="M64.3498 53.1902C64.3498 53.2639 64.387 53.4118 64.424 53.5231C64.424 53.56 64.4424 53.5783 64.4424 53.6154L64.4796 53.911C64.7753 54.4656 65.441 55.057 65.996 55.057C66.6248 55.057 67.0501 54.9094 67.5494 54.6876C67.6236 54.6506 67.6605 54.6319 67.6975 54.595C67.7899 54.5209 67.9195 54.4103 68.012 54.3551C68.5112 54.1515 69.0847 53.8739 69.362 53.3008L69.3989 53.1348C69.4359 53.1348 69.5285 53.1163 69.6581 53.024L69.8248 52.765C69.8617 52.7281 69.88 52.5804 69.8981 52.4879C69.8981 52.4692 69.9168 52.4138 69.9168 52.3953C69.9351 52.3028 69.9538 52.2289 69.9907 52.155L70.1205 51.9518C70.2499 51.7485 70.3055 51.1014 70.3055 50.9163C70.3055 49.9367 69.8617 49.1786 69.4174 48.4767L69.1032 47.8852C68.9737 47.626 68.8811 47.4411 68.6038 47.4411C68.4188 47.4411 68.3079 47.5337 68.1597 47.6076L68.0675 47.6447L67.864 47.7742C67.1981 48.0511 65.7003 48.8092 65.2745 49.6411C65.1636 49.8997 65.0714 50.0849 64.9973 50.2142L64.8307 50.4174C64.8307 50.4543 64.7936 50.4914 64.7936 50.5097C64.7197 50.5838 64.6642 50.7872 64.572 51.0088L64.4979 51.1937C64.4979 51.2307 64.4609 51.2863 64.4609 51.3047C64.3685 51.5079 64.3129 51.6559 64.2574 51.6559V53.0422C64.2759 53.0609 64.3498 53.1163 64.3498 53.1902ZM64.0168 51.1937C64.2759 51.1937 64.4424 50.8428 64.535 50.6207C64.535 50.6023 64.5535 50.5467 64.572 50.5097C64.5901 50.4914 64.6086 50.4728 64.6086 50.4543C64.6086 50.4543 64.9047 49.9367 65.1453 49.5301C65.3116 49.2342 65.4597 48.9756 65.4597 48.9756L66.07 48.1621H65.996C65.5521 48.1621 65.0714 48.7907 64.8123 49.1417L64.7381 49.2342C64.6273 49.3822 64.3685 49.7333 64.3129 49.8626C64.2759 49.9183 64.2205 50.0849 64.2018 50.1403C64.1464 50.3064 64.0722 50.5097 64.0168 50.5467V51.1937ZM65.6632 55.9446C65.1819 55.741 64.8307 55.316 64.5165 54.7799C64.2018 54.3364 63.9798 53.9479 63.9432 53.3378C63.9432 53.2273 63.9246 52.987 63.9061 52.7463C63.8876 52.5248 63.8876 52.2659 63.8876 52.155C63.7952 52.0994 63.7396 51.9147 63.7026 51.7668V51.6559L63.573 51.5262C63.5546 51.5079 63.5361 51.4158 63.5361 51.3973C63.5546 51.2678 63.7026 51.1383 63.758 51.0827C63.8135 51.0275 63.8135 50.9719 63.8135 50.9163C63.8135 50.8799 63.8322 50.8612 63.9432 50.8612V50.2511C64.1279 50.1403 64.2389 49.8813 64.3685 49.6411C64.387 49.6411 64.4796 49.4562 64.5165 49.3822C64.5535 49.3083 64.6086 49.2342 64.6086 49.1417C64.8307 48.8092 65.0529 48.5688 65.256 48.3657L65.5521 48.0511C65.6447 47.9218 65.6632 47.9035 65.6817 47.9035C65.7924 47.8665 65.8663 47.8111 65.9774 47.6816L66.5692 46.9792L66.7728 46.7021L66.9575 46.6651C67.1425 46.628 67.3648 46.5725 67.3648 46.3136C67.3648 46.1843 67.1242 45.9255 65.4225 44.5576L65.3299 44.4464C65.219 44.2619 64.9973 44.0769 64.8123 43.9659L64.6827 43.8549C64.5535 43.7443 64.4424 43.615 64.3498 43.4855C64.2759 43.4114 64.2018 43.3004 64.2018 43.3004C63.8322 42.9494 63.573 42.7458 63.3697 42.3763L63.3143 42.1729C63.2773 42.099 63.0921 41.8588 62.9997 41.7478C62.7225 41.1933 62.5929 40.7683 62.5929 40.1027C62.5003 40.0473 62.4634 39.6773 62.4634 39.5668C62.4634 39.3076 62.5745 38.7718 62.7225 38.5498C62.833 38.4391 62.9628 38.2357 62.9997 38.1247C62.9997 38.0878 62.9997 37.9952 63.0182 37.9211C63.0367 37.8661 63.0552 37.7551 63.0552 37.6996C63.0552 37.6996 63.0737 37.6996 63.1291 37.6256C63.1847 37.5886 63.2773 37.4961 63.2958 37.3851L63.3328 37.2743L63.4435 37.2006L63.7952 36.7751L63.9983 36.7197C63.9983 36.7197 64.1835 36.4055 64.2574 36.3131C64.387 36.1467 64.535 35.962 64.6642 35.8512L65.0529 35.5922C65.219 35.4815 65.5336 35.2964 65.7737 35.2041C65.7737 35.2041 66.218 35.0192 66.1995 35.0375L66.6063 34.8899H67.0131C67.4387 34.8899 67.8455 35.0192 68.2706 35.1854L68.7887 35.352C68.807 35.352 68.8811 35.3705 68.9367 35.389C68.9921 35.4076 69.0476 35.4259 69.1217 35.4259L69.2513 35.5922L69.3805 35.6661L69.8248 36.2206C69.8061 36.4426 69.6581 36.8121 69.6024 36.8121C69.547 36.8121 69.3989 36.7567 69.2328 36.7011C69.2143 36.7011 69.1587 36.6831 69.1404 36.6645L68.8441 36.5352L68.1967 36.3686C67.9195 36.2947 67.6049 36.2206 67.4572 36.1467H67.1055C66.6435 36.1467 66.2734 36.3316 65.9404 36.4981L65.8663 36.5352C65.7924 36.5352 65.7186 36.6091 65.7003 36.6645C65.6817 36.6831 65.6632 36.6831 65.6447 36.6831C65.5891 36.7382 65.4966 36.7751 65.4225 36.7936C65.4041 36.7936 65.3856 36.7936 65.3486 36.8307C65.3299 36.849 65.293 36.849 65.2745 36.849C65.219 36.8677 65.1636 36.8862 65.0342 36.96L64.6456 37.3112C64.535 37.4222 64.4055 37.5517 64.1648 37.5886L63.5915 38.3096C63.5915 38.4391 63.5546 38.5498 63.4991 38.6792C63.4991 38.7902 63.4991 39.0858 63.4804 39.3263C63.4804 39.4743 63.462 39.6222 63.462 39.7327V39.9732L63.5174 40.3614C63.5361 40.4723 63.5546 40.6203 63.5546 40.6387C63.6841 40.7683 63.8322 40.9899 63.9246 41.1194C64.1279 41.4519 64.3498 41.7663 64.4979 41.8774C64.6827 42.062 64.9047 42.2469 65.1083 42.3579C65.256 42.4688 65.2745 42.4873 65.2745 42.4873C65.3856 42.5798 65.4597 42.6164 65.7003 42.8384C65.7003 42.8384 65.7558 42.9123 65.7924 42.9679C65.8293 43.0233 65.9219 43.1159 65.9589 43.1528C66.218 43.4114 66.4767 43.5781 66.7544 43.726L66.9209 43.8365C67.0501 43.9105 67.1981 44.0029 67.2905 44.0769C68.5299 45.2416 69.1587 45.7221 69.1587 45.7221L69.2143 45.6665H69.4359C69.4731 45.7035 69.5655 45.7221 69.6765 45.7221C69.7876 45.7221 69.8248 45.7221 69.8617 45.7034L69.9168 45.6852C69.9351 45.7221 69.9907 45.7221 70.1388 45.7221L70.1944 45.6665C70.2314 45.6665 70.3055 45.7221 70.3055 45.7221C70.3794 45.7221 70.5271 45.6852 70.5271 45.6852C70.5456 45.5926 70.564 45.5376 70.5825 45.5376C70.6936 45.5005 70.7121 45.5005 70.7308 45.5005H70.8232L70.9527 45.4079C70.9899 45.4079 70.9899 45.4635 70.9899 45.4635C71.1558 45.4635 71.2669 45.5926 71.3965 45.5926C71.4521 45.5376 71.5262 45.5189 71.5817 45.5189C71.7478 45.5189 71.9143 45.6665 72.1363 45.7405C72.1919 45.5926 72.3211 45.5741 72.4322 45.5741H72.6174C72.7653 45.5741 72.8944 45.5926 73.061 45.6295C73.209 45.6665 73.4312 45.7034 73.5975 45.7034C73.6158 45.7221 73.6714 45.7405 73.7084 45.7405C73.8008 45.7405 73.8934 45.7034 74.0231 45.7034C74.1338 45.7034 74.2447 45.7775 74.3558 45.7775C74.4669 45.8145 74.7996 45.9255 74.7996 46.0367C74.7439 46.0919 74.7439 46.129 74.7439 46.1656C74.7439 46.2766 74.7439 46.3505 74.7996 46.4246V47.1086C74.7255 47.1086 74.6885 47.0532 74.6329 46.9422L74.4482 46.9792C74.3189 46.9792 74.2819 46.9792 74.2632 46.9422L74.1891 46.8496C74.1521 46.794 74.1152 46.7207 74.0045 46.6651L73.8195 46.6095L73.7084 46.5354C73.209 46.48 72.9684 46.48 72.5063 46.48H72.1919C72.0809 46.48 71.8033 46.5172 71.5262 46.5541C71.2484 46.591 70.9527 46.6095 70.8601 46.6095C70.8049 46.6651 70.6936 46.6834 70.5825 46.7021C70.3055 46.7386 69.9724 46.8127 69.9724 47.0902C69.9724 47.3857 70.2868 47.7742 70.4349 47.9402C70.8601 48.8831 71.2669 49.8626 71.2669 50.9348C71.2669 51.2863 71.2669 51.5633 71.2115 51.8964C71.2115 51.8964 70.8049 52.876 70.7308 52.9499L70.6012 53.1348C70.5825 53.1719 70.5271 53.2089 70.5086 53.2458C70.3794 53.4118 70.1574 53.7634 70.0464 53.9479C69.8981 53.9666 69.8061 54.0959 69.7135 54.2623L69.6581 54.392L69.4731 54.6319C69.0293 55.1495 67.6975 55.8151 67.1981 55.8707C67.1981 55.8707 67.1055 55.963 67.1242 55.963C67.1242 55.963 66.9575 56 66.9209 56C66.8839 56 66.8285 56 66.7728 55.9816C66.7174 55.963 66.6248 55.9446 66.6063 55.9446H65.6632Z" fill="#B0D629"/>
<path d="M80.9963 47.3858C80.9963 47.2566 81.1259 47.2936 81.2185 47.2195C81.1998 47.3305 81.0887 47.3858 80.9963 47.3858ZM80.7747 47.5707C80.7747 47.4781 80.8117 47.3858 80.9594 47.3858C80.9411 47.5522 80.8487 47.4968 80.7747 47.5707ZM76.4836 44.9275C76.4096 45.1121 76.1879 45.2231 76.1879 45.4636C77.0384 45.4636 78.2037 45.1305 78.5367 44.3911V44.114C78.4628 44.114 78.3148 44.0399 78.2961 44.003H77.9265C77.4454 44.003 76.946 44.4836 76.5577 44.8719L76.4836 44.9275ZM75.0043 46.7757C75.0043 46.6281 75.1148 46.1843 75.1148 45.9996C75.1148 45.944 75.1704 45.9071 75.1704 45.8332C75.1889 45.6666 75.2076 45.519 75.2628 45.408C75.3369 45.26 75.485 45.1491 75.9103 44.7239C76.2616 43.9291 76.5946 44.003 77.2051 43.7074C77.4637 43.5781 77.7415 43.5595 78.4998 43.393C78.5739 43.4669 78.6474 43.4855 78.7398 43.4855H78.8325C79.1472 43.4855 79.2392 44.1509 79.3318 44.1509L79.2949 44.5946C79.2762 44.9275 79.1842 45.0381 78.9805 45.2417L78.9252 45.2971C78.5739 45.9811 77.316 46.2583 76.5764 46.2583C76.317 46.2583 76.1509 45.9811 76.0029 45.9811C75.9844 46.0181 75.9844 46.0737 75.9844 46.1106C75.9844 46.2396 76.0213 46.3875 76.0213 46.5172V46.6281C76.0213 47.4597 76.8721 47.9403 77.5934 47.9403H77.6673C78.1111 47.9403 78.629 47.7556 78.9805 47.5707C79.4059 47.4781 79.6094 47.1087 79.9606 47.1087C79.9793 47.1087 80.5895 46.4986 80.8487 46.4616L81.2185 46.1106C81.533 46.0368 81.9583 45.5556 82.3466 45.2787C82.5503 45.1305 83.031 44.687 83.1975 44.687C83.1975 44.7796 83.1419 45.1491 82.9939 45.1491C82.883 45.1491 82.7719 45.4451 82.6983 45.5376C82.5873 45.6666 82.2355 45.7776 82.2169 45.9625H81.9768C81.8659 46.4986 81.6438 46.2213 81.6251 46.4801C81.5515 46.6096 81.1444 46.7021 81.1444 46.8681C81.1444 46.9053 81.1628 46.9423 81.1628 46.9977C81.1628 47.2012 80.3308 47.2751 80.3123 47.7743H80.4415C80.423 48.1622 79.3503 48.3842 79.1102 48.5317C78.8509 48.8462 79.0546 48.5872 77.9449 48.9941C77.3532 48.9757 76.6503 48.9202 76.1139 48.6059C76.0213 48.5317 75.8548 48.5137 75.8178 48.4396C75.6883 48.3657 75.0228 47.5151 75.0228 46.8867C75.0043 46.8311 75.0043 46.8127 75.0043 46.7757Z" fill="#B0D629"/>
<path d="M87.965 47.3858C87.965 47.2566 88.0945 47.2936 88.1871 47.2195C88.1686 47.3305 88.0575 47.3858 87.965 47.3858ZM87.7434 47.5707C87.7434 47.4781 87.7803 47.3858 87.9284 47.3858C87.9099 47.5522 87.8173 47.4968 87.7434 47.5707ZM83.4524 44.9275C83.3783 45.1121 83.1567 45.2231 83.1567 45.4636C84.007 45.4636 85.1723 45.1305 85.5056 44.3911V44.114C85.4314 44.114 85.2834 44.0399 85.2649 44.003H84.8951C84.414 44.003 83.9146 44.4836 83.5263 44.8719L83.4524 44.9275ZM81.9729 46.7757C81.9729 46.6281 82.0836 46.1843 82.0836 45.9996C82.0836 45.944 82.139 45.9071 82.139 45.8332C82.1575 45.6666 82.1762 45.519 82.2316 45.408C82.3056 45.26 82.4538 45.1491 82.8789 44.7239C83.2302 43.9291 83.5633 44.003 84.1737 43.7074C84.4325 43.5781 84.7101 43.5595 85.4684 43.393C85.5425 43.4669 85.6161 43.4855 85.7087 43.4855H85.8013C86.1158 43.4855 86.2079 44.1509 86.3005 44.1509L86.2635 44.5946C86.245 44.9275 86.1524 45.0381 85.9493 45.2417L85.8939 45.2971C85.5425 45.9811 84.2848 46.2583 83.545 46.2583C83.2857 46.2583 83.1195 45.9811 82.9715 45.9811C82.953 46.0181 82.953 46.0737 82.953 46.1106C82.953 46.2396 82.99 46.3875 82.99 46.5172V46.6281C82.99 47.4597 83.8407 47.9403 84.562 47.9403H84.636C85.0797 47.9403 85.5976 47.7556 85.9493 47.5707C86.3746 47.4781 86.5782 47.1087 86.9294 47.1087C86.9479 47.1087 87.5583 46.4986 87.8173 46.4616L88.1871 46.1106C88.5017 46.0368 88.9271 45.5556 89.3152 45.2787C89.5189 45.1305 89.9996 44.687 90.1662 44.687C90.1662 44.7796 90.1107 45.1491 89.9627 45.1491C89.8516 45.1491 89.7405 45.4451 89.667 45.5376C89.5559 45.6666 89.2042 45.7776 89.1857 45.9625H88.9454C88.8345 46.4986 88.6124 46.2213 88.5939 46.4801C88.5198 46.6096 88.113 46.7021 88.113 46.8681C88.113 46.9053 88.1315 46.9423 88.1315 46.9977C88.1315 47.2012 87.2996 47.2751 87.2809 47.7743H87.4101C87.3916 48.1622 86.3189 48.3842 86.0789 48.5317C85.8197 48.8462 86.0232 48.5872 84.9138 48.9941C84.3218 48.9757 83.6189 48.9202 83.0826 48.6059C82.99 48.5317 82.8234 48.5137 82.7865 48.4396C82.6569 48.3657 81.9914 47.5151 81.9914 46.8867C81.9729 46.8311 81.9729 46.8127 81.9729 46.7757Z" fill="#B0D629"/>
</g>
<defs>
<clipPath id="clip0_19_215">
<rect width="97" height="56" fill="white"/>
</clipPath>
</defs>
</svg>
